<mxfile host="app.diagrams.net" modified="2024-05-14T15:17:14.882Z" agent="Mozilla/5.0 (Windows NT 10.0; Win64; x64; rv:109.0) Gecko/20100101 Firefox/115.0" version="24.4.0" etag="xz8RFohq2xBhwlz7csx9" type="github">
  <diagram name="Page-1" id="4HtnsJomPUPoYvEETrM_">
    <mxGraphModel>
      <root>
        <mxCell id="0" />
        <mxCell id="1" parent="0" />
      </root>
    </mxGraphModel>
  </diagram>
</mxfile>
